<?xml version="1.0" encoding="utf-8"?>
<!-- Svg Vector Icons : http://www.onlinewebfonts.com/icon -->
<!DOCTYPE svg PUBLIC "-//W3C//DTD SVG 1.1//EN" "http://www.w3.org/Graphics/SVG/1.1/DTD/svg11.dtd">
<svg version="1.1" xmlns="http://www.w3.org/2000/svg" xmlns:xlink="http://www.w3.org/1999/xlink" x="0px" y="0px" viewBox="0 0 1000 1000" enable-background="new 0 0 1000 1000" xml:space="preserve">
<metadata> Svg Vector Icons : http://www.onlinewebfonts.com/icon </metadata>
<g><g transform="translate(0.000000,511.000000) scale(0.100000,-0.100000)"><path d="M4681.2,3870.4c-162.9-19.4-337.3-69.8-414.9-118.3c-54.3-32.9-71.7-34.9-160.9-13.6c-73.7,17.5-141.5,17.5-285-1.9c-292.8-34.9-529.3-131.8-587.4-240.4c-21.3-38.8-38.8-42.7-201.6-44.6c-207.5-1.9-444-69.8-699.9-201.6c-366.4-188.1-701.8-471.1-763.9-643.7c-31-87.2-44.6-100.8-164.8-164.8C1145,2305.8,774.7,1918.1,637,1640.8c-42.7-87.2-52.4-133.8-54.3-254v-147.3l-95-108.6C257,871.2,144.6,590,140.7,274c-1.9-153.2,5.8-207.5,33-257.9c34.9-64,34.9-64-19.4-174.5C105.8-257.2,100-290.1,100-466.6c0-193.9,0-197.7,87.2-368.4c89.2-172.5,89.2-172.5,54.3-230.7c-69.8-112.4-29.1-366.4,95-589.4c160.9-294.7,457.5-587.5,692.1-686.3c91.1-38.8,244.3-40.7,292.8-3.9c33,23.3,44.6,23.3,91.1,0c65.9-34.9,203.6-34.9,265.6,0c46.5,25.2,54.3,21.3,190-126c85.3-89.2,182.2-170.6,234.6-195.8c65.9-32.9,102.8-65.9,129.9-122.1c83.4-166.7,442-331.5,765.8-352.9c199.7-13.6,442,29.1,603,106.6l108.6,52.4l60.1-98.9c100.8-164.8,228.8-290.8,356.7-354.8c126-64,176.4-71.7,255.9-40.7c42.7,15.5,65.9,7.8,143.5-40.7c50.4-31.1,153.2-77.6,226.8-100.8c246.2-77.6,637.9-44.6,897.6,73.7c100.8,46.5,106.6,46.5,164.8,15.5c75.6-40.7,306.3-44.6,459.5-7.7c137.6,32.9,370.3,127.9,504.1,207.4l104.7,62l71.7-58.2c139.6-112.4,476.9-176.4,703.8-133.7c166.7,31,304.4,100.8,420.7,213.3c56.2,54.3,157.1,135.7,223,178.3c374.2,242.3,554.5,616.5,486.6,1008.1l-15.5,89.2l112.4,85.3c347,259.8,620.4,639.8,674.7,936.4c9.7,50.4,29.1,79.5,69.8,98.9C9865.4-728.3,9983.7-55.5,9832.5,307c-44.6,104.7-52.4,153.2-56.2,354.8c-3.9,180.3-15.5,263.7-48.5,368.4c-58.2,180.3-160.9,381.9-257.9,511.8c-44.6,58.2-100.8,162.9-126,232.7c-139.6,383.9-643.7,1025.6-858.9,1089.6c-52.3,15.5-91.1,44.6-116.3,85.3c-85.3,137.7-397.4,391.6-620.4,506c-79.5,40.7-135.7,54.3-223,54.3c-95,1.9-131.8,11.6-203.6,58.2c-126,83.4-370.3,160.9-581.6,188.1c-203.6,23.3-492.5,9.7-587.4-29.1c-44.6-17.5-89.2-19.4-166.7-5.8c-71.7,13.6-168.7,11.6-296.6-3.9l-190-23.3l-48.5,58.2c-27.1,31-89.2,69.8-139.6,87.2C5202.8,3876.2,4859.6,3893.7,4681.2,3870.4z M5253.2,3635.8c89.2-40.7,50.4-77.5-166.7-155.1c-60.1-21.3-155.1-69.8-209.4-106.6c-54.3-36.8-120.2-65.9-145.4-65.9c-77.5,0-250.1-75.6-331.5-145.4c-60.1-50.4-98.9-67.9-155.1-67.9c-40.7-1.9-106.6-13.6-147.3-29.1c-54.3-17.5-128-23.3-254-15.5c-298.6,17.4-496.3-58.2-593.3-230.7l-46.5-81.4l98.9,71.7c54.3,38.8,129.9,85.3,168.7,100.8c71.7,31,186.1,38.8,186.1,13.6c0-7.8-48.5-50.4-106.6-96.9c-58.2-44.6-120.2-108.6-137.7-139.6c-19.4-29.1-67.9-71.7-110.5-89.2c-42.7-19.4-126-81.4-184.2-137.7c-85.3-79.5-129.9-104.7-205.5-122.1c-108.6-23.3-178.4-60.1-228.8-124.1c-52.3-64-40.7-69.8,52.3-29.1c48.5,21.3,96.9,33,106.6,27.1c46.5-29.1,5.8-91.1-186.1-288.9c-201.6-205.5-205.5-209.4-244.3-172.5c-34.9,31-38.8,52.3-31,160.9c13.6,182.2,77.5,294.7,288.9,498.3c160.9,157,250.1,277.2,250.1,339.3c0,13.6-23.3-3.9-52.3-36.8c-31-33-133.8-122.1-230.7-197.7c-244.3-188.1-325.7-304.4-354.8-502.1c-11.6-81.4-15.5-85.3-126-129.9c-64-25.2-174.5-87.2-246.2-137.7c-190-129.9-226.8-104.7-151.2,100.8c58.2,153.2,98.9,190,197.7,174.5c67.9-11.6,73.7-9.7,54.3,15.5c-13.6,15.5-64,48.5-110.5,71.7c-141.5,67.9-321.8,25.2-471.1-110.5c-137.7-124.1-135.7-149.3,9.7-73.7c135.7,69.8,180.3,79.5,217.1,42.6c34.9-34.9,29.1-81.4-25.2-182.2c-27.1-50.4-48.5-122.1-48.5-160.9c0-81.4-65.9-221-172.5-370.3c-139.6-193.9-145.4-335.4-21.3-583.6c93.1-180.3,83.4-223-77.5-366.4c-75.6-65.9-155.1-155.1-174.5-195.8c-42.7-83.4-54.3-211.3-29.1-352.9c13.6-85.3,11.6-96.9-36.8-147.3c-29.1-31-60.1-87.2-69.8-126L986-590.7l75.6,69.8c79.5,71.7,172.5,89.2,254,46.5c67.9-36.8,62-2-19.4,89.2c-83.4,95-110.5,182.2-89.2,294.7c19.4,112.5,54.3,166.7,180.3,281.1c64,58.2,129.9,129.9,147.3,162.9c46.5,91.1,36.8,209.4-33,362.5c-112.4,252-77.5,397.4,155.1,637.9c157,162.9,471.1,383.9,546.7,383.9c11.6,0,34.9-33,50.4-71.7c17.4-40.7,50.4-100.8,75.6-131.8c38.8-54.3,42.7-65.9,19.4-118.3c-21.3-52.3-226.8-294.7-333.5-391.6c-36.8-33-54.3-38.8-85.3-23.3c-52.3,29.1-48.5,128,11.6,242.3l50.4,91.1l-62-36.8c-34.9-19.4-83.4-73.7-108.6-122.1c-52.3-95-52.3-170.6-5.8-335.4c27.1-87.2,25.2-95-25.2-199.7c-36.8-73.7-58.2-159-71.7-275.3c-11.6-112.5-44.6-242.3-96.9-387.8c-42.7-122.1-98.9-329.6-126-463.4c-52.3-259.8-54.3-265.6-112.4-329.6c-83.4-93-376.1-42.6-506,83.4C755.3-613.9,739.8-565.4,739.8-327c1.9,240.4,27.1,333.4,174.5,630.1c131.8,265.6,170.6,389.7,160.9,513.8c-7.7,85.3-21.3,120.2-64,164.8c-133.8,139.6-300.5,17.4-300.5-221c0-128,29.1-159,44.6-46.5c13.6,95,69.8,178.4,128,186.1c69.8,11.6,98.9-29.1,98.9-133.8c0-77.6-19.4-129.9-100.8-283.1C701,142.2,673.9,82.1,642.8-49.8c-62-273.3-27.1-540.9,93.1-697.9c100.8-131.8,211.3-188,403.3-209.4c193.9-19.4,261.7-46.5,300.5-118.3c33-67.9,34.9-151.2,1.9-162.9c-13.6-5.8-58.2,7.8-100.8,29.1c-40.7,21.3-93.1,38.8-112.4,38.8c-44.6,0-133.8-46.5-168.7-87.2c-23.3-27.1-21.3-31,23.3-19.4c69.8,17.4,195.8-21.3,267.5-81.4c73.7-60.1,122.1-155.1,155.1-296.6c13.6-58.2,50.4-162.9,79.5-230.7c60.1-131.9,67.9-178.4,36.8-232.7c-42.7-83.4-141.5-58.2-248.2,64c-75.6,87.2-93.1,172.5-56.2,281.1l29.1,83.4l-46.5-44.6c-65.9-62-96.9-170.6-67.9-252c29.1-83.4,27.1-143.5-5.8-172.5c-23.3-17.5-48.5-13.6-120.2,19.4c-219.1,95-438.2,323.8-573.9,597.1c-69.8,135.7-81.4,178.4-81.4,288.9c-1.9,162.9,23.3,174.5,129.9,52.4c44.6-52.4,126-141.5,180.3-201.6c110.5-120.2,143.5-172.6,143.5-232.7c0-23.3,9.7-34.9,19.4-29.1c33,21.3,21.3,182.2-19.4,263.7c-23.3,42.6-124.1,166.7-224.9,275.3c-298.6,318-376.1,457.5-376.1,668.9c0,137.7,48.5,244.3,160.9,366.4C569.2,25.9,580.8,55,553.7,153.8l-21.3,81.4l-36.8-77.5C441.2,49.1,421.8,33.6,388.9,78.2c-34.9,48.5-34.9,232.7,0,401.3c52.4,240.4,139.6,376.1,461.4,717.3c257.8,271.4,347,347,345.1,294.7c0-9.7-9.7-50.4-19.4-93.1c-13.6-58.2-11.6-102.7,13.6-184.2l31-106.6l15.5,87.2c5.8,48.5,27.1,120.2,44.6,162.9c56.2,133.8,27.1,273.4-60.1,294.7c-62,15.5-193.9-65.9-312.1-195.8c-54.3-58.2-102.8-106.6-108.6-106.6c-5.8,0-11.6,27.1-11.6,58.2c0,114.4,128,318,337.3,539c248.2,259.8,463.4,383.9,707.6,405.2c226.8,19.4,327.6,104.7,300.5,252l-13.6,69.8l-34.9-69.8c-21.3-38.8-56.2-83.4-79.5-98.9c-54.3-38.8-197.7-40.7-226.8-3.9c-33,38.8-7.7,79.5,108.6,188.1c314.1,292.7,773.6,511.8,1120.6,535.1c184.2,11.6,178.4-3.9-34.9-91.1c-178.4-73.7-356.7-201.6-409.1-292.7l-38.8-65.9l77.6,60.1c100.8,79.5,131.8,95,370.3,184.2c112.4,40.7,246.2,106.6,298.6,143.5c108.6,77.5,184.2,85.3,339.3,38.8c122.1-36.8,118.3-36.8,67.9,17.4c-23.3,25.2-96.9,69.8-162.9,98.9l-118.3,54.3l44.6,34.9c139.6,112.4,601,164.8,738.7,83.4c98.9-56.2,96.9-96.9-3.9-143.5c-46.5-21.3-102.7-38.8-126-38.8c-73.7,0-67.9-34.9,7.8-56.2c112.4-33,137.6-27.1,294.7,60.1c126,67.9,164.8,79.5,267.6,81.4c67.9,1.9,122.1,3.9,122.1,5.8c0,23.3-151.2,73.7-252,81.4c-108.6,9.7-126,17.4-126,50.4c0,46.5,124.1,96.9,304.4,124.1C4826.6,3680.4,5183.4,3666.8,5253.2,3635.8z M6914.7,3513.7c157-44.6,337.3-139.6,403.2-215.2c52.4-56.2,56.2-73.7,42.7-133.8c-7.8-38.8-7.8-69.8,0-69.8c23.3,0,87.2,85.3,116.3,157c23.3,52.3,33,58.2,85.3,48.5c131.8-27.1,451.7-255.9,579.7-414.9c180.3-223,139.6-345.1-166.7-517.6c-180.3-100.8-215.2-141.5-197.8-226.8l13.6-58.2l34.9,56.2c52.4,85.3,118.3,131.8,312.1,211.3c197.8,81.4,250.1,131.8,250.1,242.3c0,114.4,46.5,96.9,213.3-75.6c292.7-302.4,581.6-769.7,581.6-942.2c0-160.9-9.7-159-195.8,31c-145.4,147.3-178.4,193.9-203.6,281.1c-34.9,122.1-172.5,314.1-273.4,381.9c-104.7,71.7-122.1,62-40.7-21.3c135.7-141.5,209.4-354.8,120.2-354.8c-15.5,0-83.4,23.3-149.3,52.3c-215.2,93.1-440.1,64-471.1-60.1c-13.6-58.2,34.9-166.7,91.1-203.6c38.8-23.3,40.7-21.3,29.1,21.3c-36.8,116.3-34.9,127.9,17.5,162.9c46.5,29.1,65.9,31,157,11.6c283.1-58.2,696-368.4,855-637.9c40.7-71.7,48.5-102.8,40.7-201.6c-5.8-75.6-21.3-133.8-48.5-168.7c-58.2-77.6-95-75.6-139.6,9.7l-38.8,73.7L8931,846c0-129.9,25.2-168.7,162.9-261.7c122.1-81.4,147.3-129.9,147.3-283.1c0-164.8-54.3-296.6-223-552.5c-81.4-124.1-160.9-254-176.4-288.9c-31-75.6-36.8-292.8-7.8-310.2c11.6-5.8,19.4,7.7,19.4,34.9c0,69.8,129.9,314.1,195.8,370.3c110.5,93.1,199.7,46.5,269.5-141.5c110.5-288.9-19.4-624.3-374.2-965.5c-236.5-226.8-566.1-436.2-752.2-478.9c-60.1-13.6-153.2,48.5-153.2,102.8c0,48.5,106.6,207.4,159,238.5c25.2,13.6,110.5,46.5,191.9,73.7c269.5,93,523.5,296.6,630.1,507.9c95,186.1,58.2,182.3-133.8-9.7c-265.6-265.6-498.3-405.2-620.4-374.2c-29.1,5.8-64,42.7-93.1,98.9c-77.5,145.4-162.9,155.1-345.1,40.7c-95-62-100.8-73.7-17.4-48.5c100.8,29.1,149.3,21.3,203.6-33c44.6-44.6,48.5-60.1,38.8-149.3c-38.8-314.1-376.1-645.6-703.8-692.1c-219.1-29.1-312.1,67.9-184.2,195.8c34.9,32.9,46.5,56.2,31,56.2c-50.4,0-168.7-124.1-275.3-283.1c-155.1-238.5-296.6-354.8-500.2-412.9c-42.7-13.6-207.5-31-364.5-40.7c-339.3-21.3-463.4-52.4-566.1-143.5l-77.6-67.9l116.3,36.9c331.5,100.8,442,54.3,347.1-147.3c-89.2-190-380-337.3-715.4-368.4c-358.7-31.1-647.5,127.9-810.4,449.8l-67.9,133.8l-33-73.7c-29.1-71.7-29.1-77.5,19.4-182.2c27.1-58.2,48.5-120.2,48.5-133.8c0-69.8-122.1-2-254,141.5c-135.7,147.3-213.3,308.3-226.8,463.4c-7.8,106.6-3.9,122.1,34.9,149.3c48.5,34.9,64,31,217.1-56.2c195.8-110.5,345.1-159,593.2-191.9c273.4-34.9,318-48.5,360.6-110.5c75.6-106.6,13.6-203.6-155.1-238.4l-114.4-23.3l81.4-25.2c135.7-40.7,244.3,0,325.7,122.1c31,48.5,33,64,9.7,159c-23.3,96.9-23.3,110.5,9.7,145.4c19.4,21.3,44.6,38.8,58.2,38.8c11.6,0,79.5,38.8,151.2,85.3c118.3,77.5,145.4,87.2,281.1,96.9c298.6,25.2,486.6,102.8,632,263.7c58.2,65.9,139.6,193.9,122.1,193.9c-2,0-52.4-44.6-110.5-96.9c-153.2-143.5-306.3-213.3-455.6-213.3c-93.1,0-131.8,9.7-172.5,40.7c-106.6,83.4-32.9,240.4,143.5,298.6c104.7,34.9,217.1,143.5,263.7,254c15.5,38.8,48.5,75.6,77.6,85.3c27.1,11.6,155.1,19.4,285,19.4c302.5,0,455.6,25.2,622.4,100.8l131.8,62l104.7-54.3c58.2-31,128-83.4,155.1-116.3c46.5-52.3,50.4-69.8,40.7-170.6c-5.8-62-5.8-112.4-2-112.4c31,0,85.3,139.6,85.3,215.2c0,116.3-58.2,201.6-190,279.2c-54.3,31-100.8,69.8-100.8,83.3c0,31,96.9,174.5,147.3,221c21.3,17.5,95,52.3,164.8,79.5c71.7,25.2,180.3,87.2,244.3,137.7c141.5,110.5,207.5,131.8,302.4,98.9c93.1-31,124.1-58.2,190-160.9l54.3-85.3l11.6,69.8c19.4,96.9-11.6,168.7-93.1,223l-71.7,46.5l96.9,65.9c240.4,160.9,426.5,432.4,461.4,670.8c9.7,60.1,15.5,108.6,11.6,106.6c-1.9-3.9-34.9-65.9-73.7-137.7c-141.5-273.4-465.3-595.2-599.1-595.2c-31,0-34.9,11.6-23.3,104.7c11.6,83.4,5.8,114.4-21.3,157.1l-34.9,52.3l-23.3-114.4c-31-151.2-87.2-259.8-195.8-376.1c-98.9-106.6-221-172.5-314.1-172.5c-114.4,0-205.5,127.9-275.3,387.7c-21.3,79.5-25.2,83.3-38.8,38.8c-31-108.6-19.4-250.1,32.9-352.9c85.3-166.7,62.1-275.3-91.1-411c-96.9-89.2-207.5-139.6-381.9-176.4c-246.2-52.4-504.1-29.1-581.6,54.3c-21.3,23.3-54.3,102.8-69.8,174.5c-17.4,71.8-79.5,238.5-139.6,368.4c-141.5,302.5-149.3,331.5-114.4,413c27.1,64,52.4,77.5,174.5,89.2l58.2,5.8l-62.1,34.9c-98.9,52.4-191.9,42.7-261.7-27.1c-58.2-56.2-58.2-62-50.4-197.8c7.8-127.9,21.3-162.9,153.2-414.9c129.9-250.1,143.5-288.9,149.3-409.1c5.8-102.8,0-155.1-31-221c-50.4-116.3-141.5-215.2-236.5-257.8c-77.6-34.9-77.6-34.9-252,19.4c-236.5,71.7-422.6,65.9-531.2-17.5c-89.2-67.9-135.7-168.7-120.2-261.7c15.5-93.1,50.4-124.1,50.4-44.6c0,168.7,108.6,246.2,321.8,232.6c153.2-9.7,228.8-44.6,263.7-122.1c58.2-128-176.4-428.5-401.3-513.8c-230.7-85.3-732.8-19.4-944.2,126c-40.7,27.1-73.7,56.2-73.7,64s62,29.1,137.7,46.5c265.6,64,385.8,180.3,385.8,376.1c0,149.3-38.8,240.4-145.4,349c-122.1,122.1-232.6,166.7-610.7,242.3c-323.8,65.9-380,95-374.2,193.9c17.4,232.6,15.5,269.5-17.5,302.4c-33,31-34.9,31-34.9-21.3c0-145.4-128-234.6-316-221l-116.3,7.8l52.3-42.7c27.1-25.2,81.4-50.4,118.3-58.2c38.8-5.8,96.9-38.8,129.9-69.8c100.8-95,273.4-168.7,535.1-230.7c436.2-102.7,533.2-147.3,604.9-271.4c110.5-197.8,0-397.4-242.3-442c-147.3-27.2-166.7-15.5-160.9,106.6c3.9,83.4-3.9,112.4-34.9,145.4l-40.7,40.7l-13.6-83.4c-44.6-277.2-341.2-560.3-668.9-637.8c-129.9-31-424.6-15.5-544.8,27.1c-215.2,79.5-383.9,250.1-401.3,407.1c-9.7,83.4-7.8,91.1,79.5,168.7c48.5,44.6,85.3,85.3,81.4,89.2c-3.9,3.9-48.5-1.9-98.9-13.6c-122.1-27.1-209.4-7.8-312.1,69.8c-131.8,100.8-106.6,9.7,42.7-151.2c48.5-52.3,85.3-110.5,85.3-135.7c0-25.2,27.1-91.1,58.2-149.3c73.7-131.8,73.7-157,3.9-157c-147.3,0-459.5,350.9-566.1,632c-21.3,58.2-44.6,151.2-50.4,207.4c-9.7,83.4-5.8,108.6,27.1,149.3c36.8,44.6,44.6,46.5,85.3,21.3c145.4-91.1,219.1-122.2,310.2-131.9c98.9-9.7,139.6,0,319.9,73.7c56.2,23.2,73.7,19.4,174.5-21.3c141.5-58.2,354.8-184.2,453.7-269.5c126-106.6,160.9-217.1,112.4-345.1l-19.4-54.3l50.4,48.5c199.7,186.1,116.3,381.9-246.2,579.7c-323.8,178.4-407.1,263.7-418.8,430.4c-9.7,133.8,32.9,236.5,153.2,374.2c100.8,114.4,362.5,288.9,529.3,350.9c300.5,112.4,420.7,44.6,620.4-356.7c170.6-339.3,271.4-395.5,476.9-265.6c188.1,118.3,257.8,151.2,323.8,153.1c58.2,2,62,5.8,34.9,31c-50.4,50.4-157,31-286.9-54.3c-223-145.4-288.9-110.5-461.4,246.2c-64,135.7-129.9,259.8-145.4,277.3c-25.2,29.1-25.2,40.7,9.7,96.9c23.3,36.8,40.7,98.9,40.7,143.5v77.5l-46.5-69.8c-27.1-38.8-79.5-85.3-120.2-104.7c-65.9-31-75.6-31-137.7-2c-95,44.6-180.3,38.8-300.5-25.2c-127.9-69.8-151.2-56.2-151.2,79.5c0,96.9-33,184.2-83.4,224.9c-23.3,21.3-29.1,0-36.8-145.4c-11.6-221-52.3-300.5-223-438.1c-308.3-244.3-403.3-434.3-337.3-665c23.3-81.4-9.7-143.5-95-186.1c-195.8-98.9-467.2,50.4-599.1,331.5c-71.7,155.1-69.8,405.2,7.7,641.7c108.6,333.4,294.7,634,523.5,849.2c170.6,159,296.6,228.8,476.9,267.6c205.5,42.6,213.3,15.5,42.6-137.7c-75.6-69.8-162.9-164.8-195.8-213.3c-31-48.5-141.5-166.7-244.3-263.7c-238.5-224.9-323.8-381.9-337.3-614.6c-3.9-96.9,1.9-170.6,17.4-207.4c23.3-56.2,25.2-50.4,36.8,98.9c9.7,133.8,23.3,184.2,91.1,319.9c87.2,178.3,157,255.9,306.3,341.2c69.8,40.7,139.6,112.5,252,259.8c93.1,120.2,193.9,226.8,248.2,263.7c110.5,73.7,271.4,110.5,405.2,93.1c213.3-29.1,314.1-112.4,393.6-318c27.1-73.7,102.7-207.5,168.7-296.6c131.8-182.2,188.1-292.7,190-368.4c0-31,7.8-54.3,15.5-54.3c27.1,0,62,93,62,166.7c0,83.4-34.9,153.2-166.7,327.6c-129.9,172.5-182.2,286.9-182.2,403.3c0,162.9,147.3,381.9,283.1,418.8c191.9,50.4,445.9-129.9,568-407.1l38.8-85.3v96.9c1.9,252-238.5,494.4-490.5,494.4c-145.4,0-159,17.5-93.1,108.6c85.3,116.3,228.8,238.5,339.3,288.9c62,29.1,172.6,54.3,285,67.9c100.8,11.6,337.3,52.3,523.5,91.1c385.8,77.5,461.4,75.6,634-7.8c126-62,368.4-279.2,422.6-383.9c46.5-85.3,67.9-87.2,67.9-3.9c0,137.7-141.5,286.9-475,502.1c-186.1,118.3-190,126-172.5,261.7c21.3,151.2,13.6,213.3-42.6,310.2c-31,54.3-85.3,104.7-166.7,155.1c-67.9,40.7-195.8,149.3-286.9,240.4c-160.9,164.8-254,230.7-323.8,230.7c-25.2,0-13.6-21.3,46.5-81.4c42.6-46.5,104.7-124.1,137.6-172.5c67.9-100.8,157.1-182.2,335.4-310.2c197.8-139.6,228.8-250.1,122.2-438.2c-71.7-124.1-176.4-176.4-399.4-199.7c-102.8-9.7-290.8-40.7-416.8-67.9c-352.8-77.5-362.5-79.5-411-31c-110.5,110.5-1.9,234.6,232.6,265.6l104.7,13.6l-67.9,29.1c-81.4,33-238.5,21.3-327.6-25.2c-98.9-50.4-129.9-124.1-143.5-327.6c-11.6-191.9-25.2-236.5-110.5-333.5c-27.1-33-87.2-124.1-131.8-205.5c-96.9-178.4-191.9-267.5-285-267.5c-36.8,0-67.9,7.8-67.9,17.4c0,11.6,21.3,60.1,48.5,110.5c50.4,95,56.2,135.7,36.8,238.5c-17.4,79.5-34.9,75.6-62-13.6c-33-106.6-124.1-224.9-203.6-261.7c-83.4-40.7-195.8-40.7-372.2-3.9c-290.8,60.1-544.8-36.8-917-352.9c-131.8-110.5-153.2-120.2-172.6-71.7c-34.9,91.1,139.6,412.9,345.1,635.9c263.7,288.9,657.2,496.3,938.3,496.3c110.5,0,157-21.3,139.6-64c-17.5-48.5-89.2-85.3-329.6-178.4c-201.6-75.6-380-172.5-411-223c-5.8-9.7,34.9,3.9,93.1,29.1c56.2,27.1,232.6,81.4,391.6,124.1c252,65.9,296.6,83.4,343.2,135.7c69.8,77.6,69.8,159,3.9,325.7c-50.4,124.1-50.4,129.9-19.4,190c44.6,83.4,203.6,176.4,420.7,244.3c188.1,60.1,265.6,69.8,444,46.5c87.2-11.6,112.4-7.7,133.8,17.5c23.3,27.1,19.4,31-25.2,31c-79.5,0-180.3,48.5-277.2,135.7c-116.3,100.8-199.7,124.1-366.4,96.9c-139.6-23.3-248.2-69.8-306.3-133.8c-46.5-52.3-34.9-50.4,79.5,5.8c153.2,77.6,271.4,96.9,366.4,60.1c159-60.1,128-96.9-166.7-193.9c-329.6-108.6-455.6-201.6-453.7-345.1c0-44.6,5.8-96.9,15.5-114.4c13.6-29.1,5.8-34.9-38.8-34.9c-108.6,0-308.3-60.1-490.5-145.4c-98.9-48.5-184.2-87.2-188.1-87.2c-23.3,0-1.9,100.8,38.8,184.2c131.8,283.1,378.1,447.9,564.2,378.1c79.5-31,50.4,21.3-33,62c-38.8,19.4-75.6,42.6-83.4,52.3c-40.7,65.9,176.4,275.3,395.5,385.8c122.1,60.1,168.7,73.7,292.8,77.6c102.7,5.8,168.7-1.9,219.1-23.3c38.8-15.5,71.7-21.3,71.7-11.6c0,34.9-77.5,89.2-174.5,124.1c-52.3,19.4-102.7,44.6-110.5,56.2c-38.8,62,341.2,257.9,469.2,242.3c44.6-3.9,58.2-19.4,75.6-77.5c11.6-40.7,85.3-145.4,176.4-248.2c85.3-96.9,174.5-209.4,197.8-248.2l44.6-71.7v83.4c0,100.8-29.1,160.9-147.3,296.6c-168.7,195.8-176.4,302.5-25.2,430.4c182.2,157,490.5,168.7,889.9,33c271.4-93.1,535.1-279.2,595.2-420.7c29.1-73.7,33-234.6,5.8-304.4c-9.7-27.1-11.6-50.4-1.9-50.4c27.1,0,77.6,67.9,100.8,133.8c34.9,98.9,89.2,73.7,182.2-77.5c60.1-102.7,116.3-159,255.9-267.5c283.1-219.1,393.6-399.4,300.5-492.4l-40.7-40.7l-102.8,48.5c-145.4,67.9-314.1,178.4-422.6,281.1l-95,89.2l17.5-60.1c34.9-126,129.9-219.1,368.4-360.6c164.8-100.8,265.6-193.9,281.1-259.8c5.8-31-1.9-133.8-21.3-226.8c-40.7-217.1-29.1-424.6,32.9-560.3c62-141.5,60.1-285-7.7-401.3c-29.1-48.5-75.6-108.6-104.7-131.8l-54.3-40.7l77.5,11.7c98.9,15.5,159,56.2,199.7,129.9c71.7,126,69.8,126,143.5,69.8c133.8-100.8,383.9-350.9,473-467.2c87.2-116.3,89.2-122.1,79.5-230.7c-5.8-62-5.8-112.4-2-112.4c23.3,0,65.9,127.9,65.9,197.7c0,157-73.7,267.6-393.6,595.2c-418.8,426.5-438.2,475-364.5,961.6c89.2,603,81.4,649.5-135.7,891.8c-193.9,217.1-211.3,275.3-114.4,385.8c32.9,34.9,93,79.5,137.6,96.9c98.9,40.7,81.4,69.8-40.7,69.8c-83.4,0-106.6-9.7-186.1-79.5c-135.7-116.3-180.3-104.7-321.8,83.4c-62,81.4-149.3,178.4-191.9,213.3c-85.3,67.9-133.8,145.4-120.2,186.1c13.6,33,205.5,129.9,345.1,168.7c157,46.5,298.6,31,457.5-48.5c257.9-129.9,593.3-550.6,614.6-771.6c5.8-65.9-7.7-141.5-44.6-261.7c-62-197.8-62-358.7,1.9-420.7c36.8-36.8,36.8-36.8,31,54.3c-7.8,112.5,32.9,180.3,87.2,147.3c19.4-11.6,62-60.1,95-110.5c141.5-205.5,190-519.6,96.9-628.2l-46.5-52.3l-118.3,62c-159,83.4-252,83.4-319.9,1.9c-58.2-69.8-67.9-197.7-21.3-286.9c15.5-31,102.8-124.1,195.8-207.5c93.1-85.3,195.8-191.9,226.8-240.4l56.2-87.2l-9.7,73.7c-17.5,120.2-83.4,230.7-228.8,391.6c-116.3,128-135.7,157-129.9,209.4c9.7,93.1,79.5,93.1,259.8-3.9c426.5-230.7,738.7-610.7,781.3-951.9l15.5-126l31,71.7c98.9,219.1-27.1,521.5-345.1,829.8c-172.5,168.7-191.9,209.4-166.7,331.5c31,139.6,25.2,306.3-11.7,414.9c-17.4,52.3-89.2,168.7-159,259.8c-147.3,193.9-180.3,273.4-151.2,358.7c48.5,151.2,40.7,217.1-42.7,358.7c-89.2,151.2-98.9,203.6-36.8,236.5c54.3,29.1,308.3,13.6,418.8-25.2c98.9-36.8,104.7-17.4,13.6,50.4c-131.8,100.8-318,133.8-504.1,89.2c-42.7-9.7-93.1-13.6-112.4-7.8c-38.8,11.6-91.1,108.6-139.6,259.8c-46.5,143.5-98.9,226.8-164.8,261.7c-93.1,48.5-100.8,33-29.1-60.1c69.8-91.1,81.4-131.8,50.4-180.3c-15.5-23.3-31-19.4-87.2,25.2c-114.4,85.3-263.7,147.3-366.4,147.3c-114.4,0-292.8-58.2-469.2-153.2c-73.7-40.7-155.1-79.5-178.4-87.2c-29.1-9.7-120.2,17.4-288.9,85.3c-133.8,54.3-312.1,114.4-391.6,131.8l-147.4,34.9l102.8,44.6c238.5,100.8,645.6,174.5,824,149.3c126-19.4,112.4-56.2-40.7-110.5c-112.4-40.7-186.1-95-160.9-122.1c17.5-13.6,356.7,67.9,403.3,96.9c34.9,23.3,44.6,44.6,38.8,91.1c-5.8,56.2,0,64,62.1,75.6C6381.5,3566,6796.4,3544.7,6914.7,3513.7z M9433.1,1191.1c42.6-89.2,91.1-217.1,108.6-286.9c33-141.5,38.8-341.2,11.6-358.7c-11.6-5.8-48.5,7.8-83.4,29.1s-96.9,38.8-135.7,38.8c-52.4,0-81.4,11.6-108.6,48.5l-38.8,50.4l58.2,166.7c36.8,106.6,62,224.9,69.8,319.9c3.9,83.4,15.5,151.2,23.3,151.2C9347.8,1350,9388.5,1278.3,9433.1,1191.1z M9487.4,427.2c69.8-44.6,135.7-147.3,170.6-269.5c46.5-160.9,31-475-33-647.5c-71.7-199.7-137.6-205.5-199.7-19.4c-21.3,60.1-52.3,108.6-89.2,135.7c-31,21.3-69.8,65.9-85.3,96.9c-29.1,52.3-27.1,64,33,195.8c58.2,129.9,62,157,64,349v207.4l48.5-11.6C9423.4,458.2,9464.1,440.8,9487.4,427.2z M8570.4-2073.8c19.4-52.3,13.6-302.5-7.8-288.9c-9.7,5.8-19.4,31-19.4,54.3c0,23.3-21.3,93.1-46.5,155.1l-46.5,110.5h54.3C8535.5-2042.8,8562.6-2056.3,8570.4-2073.8z M8426.9-2248.3c44.6-149.3,52.3-378.1,13.6-412.9c-21.3-17.5-31,3.9-50.4,110.5c-13.6,71.7-44.6,172.5-69.8,224.9l-46.5,96.9l38.8,54.3c21.3,29.1,46.5,54.3,56.2,54.3C8378.4-2120.3,8403.6-2178.5,8426.9-2248.3z M8097.3-2186.2c0-93.1-215.2-308.3-500.2-500.2c-176.4-118.3-285-168.7-366.4-170.6c-69.8,0-77.5,19.4-44.6,108.6c15.5,38.8,13.6,62-9.7,96.9c-15.5,25.2-36.8,46.5-44.6,46.5c-9.7,0-31-50.4-50.4-110.5c-29.1-91.1-62-137.6-174.5-250.1c-215.2-213.3-523.5-360.6-818.1-387.8c-114.4-9.7-139.6-7.8-178.4,23.2l-44.6,36.9l73.7,96.9c40.7,52.3,95,135.7,122.1,182.2c56.2,102.7,114.4,137.6,224.9,137.6c234.6,0,601,205.5,697.9,393.5c25.2,46.5,38.8,52.4,128,52.4c166.7,0,418.8,71.7,645.6,182.2C7998.4-2130,8097.3-2110.6,8097.3-2186.2z M8302.8-2645.7c11.6-135.7,9.7-145.4-34.9-188.1l-48.5-44.6l-13.6,139.6c-5.8,77.5-29.1,178.3-50.4,224.9l-38.8,85.3l44.6,60.1l42.7,58.2l44.6-96.9C8273.7-2463.5,8297-2560.4,8302.8-2645.7z M8087.6-2608.9c52.4-178.4,36.8-327.6-40.7-362.5c-65.9-29.1-65.9-31-65.9,52.3c0,40.8-13.6,124.1-29.1,188.1l-31,112.4l54.3,56.2c29.1,29.1,58.2,54.3,65.9,54.3C8050.8-2508,8070.2-2552.7,8087.6-2608.9z M2657.2-2723.2c298.6-102.8,595.2-98.9,872.4,13.6c178.4,71.7,199.7,0,34.9-106.6c-197.8-124.1-475-168.7-699.9-110.5c-135.7,34.9-331.5,124.1-409.1,186.1c-40.7,32.9-44.6,40.7-19.4,58.2C2473-2657.4,2455.6-2655.4,2657.2-2723.2z M7862.7-2765.9c13.6-46.5,21.3-110.5,17.4-143.5l-5.8-60.1L7758-2921c-182.3,75.6-184.2,85.3-54.3,164.8c62.1,38.8,118.3,69.8,124.1,71.8C7835.6-2682.5,7851.1-2719.4,7862.7-2765.9z M7860.8-3062.5c71.7-13.6,75.6-27.1,23.3-75.6c-38.8-34.9-46.5-34.9-174.5-3.9c-160.9,38.8-445.9,145.4-445.9,166.8c0,9.7,44.6,32.9,98.9,54.3l98.9,36.8l168.7-83.4C7721.2-3012.1,7825.9-3054.8,7860.8-3062.5z M7238.5-3076.1c56.2-29.1,176.4-77.6,267.5-108.6c151.2-50.4,160.9-56.2,104.7-67.9c-199.7-38.8-515.7,36.8-554.5,135.7c-9.7,27.2,48.5,110.5,69.8,100.8C7131.8-3019.9,7184.2-3047,7238.5-3076.1z"/><path d="M8518,1503.2c-56.2-42.6-110.5-193.9-110.5-300.5v-64l-67.9,29.1c-83.4,34.9-211.3,34.9-240.4,0c-17.4-19.4-3.9-33,62-58.2C8419.1,1012.7,8646,638.5,8613,371c-5.8-52.3-17.4-118.3-25.2-145.4c-11.6-48.5-11.6-48.5,31-11.6c62,54.3,106.6,226.8,89.2,349c-5.8,54.3-50.4,213.3-98.9,352.9c-96.9,290.8-108.6,409.1-46.5,535.1c21.3,44.6,38.8,83.4,38.8,87.2C8601.4,1555.5,8562.6,1540,8518,1503.2z"/><path d="M5123.3,1134.8c46.5-52.3,178.4-118.3,403.3-205.5c323.8-124.1,473-215.2,525.4-316c60.1-116.3,15.5-403.3-77.5-496.3c-42.7-40.7-64-46.5-209.4-46.5c-186.1,0-211.3,15.5-283.1,184.2c-50.4,112.4-157,230.7-257.9,283.1c-40.7,19.4-77.5,36.8-83.4,36.8c-7.8,0,27.1-44.6,73.7-98.9c112.4-128,197.8-296.6,197.8-391.6c0-64-13.6-85.3-100.8-164.8c-54.3-50.4-120.2-131.8-147.3-180.3c-85.3-151.2-89.2-151.2-273.4-58.2c-124.1,62.1-195.8,116.3-302.4,226.8c-151.2,157-248.2,230.7-337.3,252c-56.2,13.6-56.2,13.6,21.3-64c44.6-44.6,114.4-129.9,157-191.9c108.6-159,170.6-213.3,314.1-271.4c314.1-128,387.7-248.2,327.6-535.1c-29.1-139.6-75.6-224.9-174.5-321.8c-44.6-44.6-77.5-87.2-71.7-91.1c19.4-21.3,197.7,118.3,259.8,201.6c95,131.8,131.8,283.1,114.4,480.8c-11.6,143.5-7.8,170.6,31,252c58.2,118.3,176.4,236.5,298.6,296.6c79.5,38.8,127.9,46.5,271.4,46.5c211.3,1.9,304.4-36.8,476.9-197.8c143.5-131.8,228.8-248.2,329.6-449.8c87.2-174.5,87.2-172.6-11.6-308.3c-71.7-96.9-62-131.8,19.4-69.8c95,73.7,232.6,110.5,318,87.2c36.8-9.7,71.7-15.5,75.6-9.7c13.6,13.6-96.9,112.4-164.8,147.3c-44.6,25.2-69.8,62-110.5,168.7c-93.1,244.3-205.5,391.6-492.4,645.6L6117.9,84l54.3,102.8c75.6,147.3,87.2,366.4,25.2,496.3c-79.5,162.9-224.9,240.4-668.9,350.9c-149.3,36.8-310.2,83.4-356.7,104.7l-85.3,36.8L5123.3,1134.8z"/></g></g>
</svg>